<svg xmlns="http://www.w3.org/2000/svg" width="206.41" height="35" viewBox="0 0 206.41 35"><rect class="svg__rect" x="0" y="0" width="92.37" height="35" fill="#31C4F3"/><rect class="svg__rect" x="90.37" y="0" width="116.03999999999999" height="35" fill="#389AD5"/><path class="svg__text" d="M15.70 22L14.22 22L14.22 13.47L19.64 13.47L19.64 14.66L15.70 14.66L15.70 17.20L19.13 17.20L19.13 18.38L15.70 18.38L15.70 22ZM29.38 22L23.80 22L23.80 13.47L29.33 13.47L29.33 14.66L25.28 14.66L25.28 17.02L28.78 17.02L28.78 18.19L25.28 18.19L25.28 20.82L29.38 20.82L29.38 22ZM39.15 22L33.57 22L33.57 13.47L39.11 13.47L39.11 14.66L35.05 14.66L35.05 17.02L38.56 17.02L38.56 18.19L35.05 18.19L35.05 20.82L39.15 20.82L39.15 22ZM45.80 22L43.34 22L43.34 13.47L45.86 13.47Q46.99 13.47 47.87 13.97Q48.75 14.48 49.23 15.40Q49.71 16.33 49.71 17.52L49.71 17.52L49.71 17.95Q49.71 19.16 49.22 20.08Q48.74 21.00 47.85 21.50Q46.95 22 45.80 22L45.80 22ZM44.83 14.66L44.83 20.82L45.79 20.82Q46.96 20.82 47.58 20.09Q48.21 19.36 48.22 17.99L48.22 17.99L48.22 17.52Q48.22 16.13 47.62 15.40Q47.01 14.66 45.86 14.66L45.86 14.66L44.83 14.66ZM55.74 22L54.26 22L54.26 13.47L55.74 13.47L55.74 22ZM62.03 22L60.55 22L60.55 13.47L62.03 13.47L65.84 19.54L65.84 13.47L67.31 13.47L67.31 22L65.83 22L62.03 15.95L62.03 22ZM71.81 18.13L71.81 18.13L71.81 17.46Q71.81 15.53 72.73 14.44Q73.66 13.35 75.32 13.35L75.32 13.35Q76.74 13.35 77.58 14.05Q78.42 14.76 78.59 16.08L78.59 16.08L77.14 16.08Q76.89 14.54 75.35 14.54L75.35 14.54Q74.35 14.54 73.83 15.26Q73.31 15.98 73.30 17.37L73.30 17.37L73.30 18.02Q73.30 19.40 73.88 20.17Q74.46 20.93 75.50 20.93L75.50 20.93Q76.64 20.93 77.12 20.42L77.12 20.42L77.12 18.75L75.36 18.75L75.36 17.62L78.59 17.62L78.59 20.89Q78.13 21.50 77.31 21.81Q76.49 22.12 75.45 22.12L75.45 22.12Q74.38 22.12 73.55 21.63Q72.72 21.14 72.27 20.24Q71.83 19.33 71.81 18.13Z" fill="#FFFFFF"/><path class="svg__text" d="M106.94 22L104.56 22L104.56 13.60L108.40 13.60Q109.54 13.60 110.38 13.98Q111.22 14.35 111.68 15.06Q112.13 15.76 112.13 16.71L112.13 16.71Q112.13 17.66 111.68 18.35Q111.22 19.05 110.38 19.42Q109.54 19.80 108.40 19.80L108.40 19.80L106.94 19.80L106.94 22ZM106.94 15.47L106.94 17.93L108.26 17.93Q108.99 17.93 109.36 17.61Q109.73 17.29 109.73 16.71L109.73 16.71Q109.73 16.12 109.36 15.80Q108.99 15.47 108.26 15.47L108.26 15.47L106.94 15.47ZM123.63 22L116.89 22L116.89 13.60L123.48 13.60L123.48 15.44L119.24 15.44L119.24 16.85L122.97 16.85L122.97 18.63L119.24 18.63L119.24 20.17L123.63 20.17L123.63 22ZM130.77 22L128.43 22L128.43 13.60L130.39 13.60L134.10 18.07L134.10 13.60L136.43 13.60L136.43 22L134.48 22L130.77 17.52L130.77 22ZM141.16 17.80L141.16 17.80Q141.16 16.54 141.76 15.54Q142.36 14.55 143.43 13.99Q144.50 13.43 145.84 13.43L145.84 13.43Q147.01 13.43 147.95 13.83Q148.89 14.22 149.51 14.97L149.51 14.97L148.00 16.33Q147.16 15.40 145.98 15.40L145.98 15.40Q145.97 15.40 145.96 15.40L145.96 15.40Q144.88 15.40 144.22 16.06Q143.56 16.71 143.56 17.80L143.56 17.80Q143.56 18.50 143.86 19.04Q144.16 19.59 144.70 19.89Q145.24 20.20 145.94 20.20L145.94 20.20Q146.62 20.20 147.22 19.93L147.22 19.93L147.22 17.62L149.32 17.62L149.32 21.10Q148.60 21.61 147.66 21.89Q146.73 22.17 145.79 22.17L145.79 22.17Q144.47 22.17 143.41 21.61Q142.36 21.05 141.76 20.05Q141.16 19.06 141.16 17.80ZM154.24 18.26L154.24 18.26L154.24 13.60L156.62 13.60L156.62 18.19Q156.62 20.20 158.21 20.20L158.21 20.20Q159.79 20.20 159.79 18.19L159.79 18.19L159.79 13.60L162.14 13.60L162.14 18.26Q162.14 20.13 161.10 21.15Q160.06 22.17 158.19 22.17L158.19 22.17Q156.31 22.17 155.28 21.15Q154.24 20.13 154.24 18.26ZM169.60 22L167.22 22L167.22 13.60L169.60 13.60L169.60 22ZM177.11 22L174.78 22L174.78 13.60L176.73 13.60L180.44 18.07L180.44 13.60L182.77 13.60L182.77 22L180.82 22L177.11 17.52L177.11 22ZM187.34 21.24L187.34 21.24L188.12 19.49Q188.69 19.86 189.43 20.09Q190.18 20.32 190.90 20.32L190.90 20.32Q192.26 20.32 192.27 19.64L192.27 19.64Q192.27 19.28 191.88 19.11Q191.49 18.93 190.62 18.74L190.62 18.74Q189.67 18.53 189.04 18.30Q188.40 18.06 187.95 17.55Q187.49 17.03 187.49 16.16L187.49 16.16Q187.49 15.39 187.91 14.77Q188.33 14.15 189.16 13.79Q190.00 13.43 191.21 13.43L191.21 13.43Q192.03 13.43 192.84 13.62Q193.64 13.80 194.26 14.17L194.26 14.17L193.53 15.93Q192.33 15.28 191.19 15.28L191.19 15.28Q190.49 15.28 190.16 15.49Q189.84 15.70 189.84 16.04L189.84 16.04Q189.84 16.37 190.22 16.54Q190.61 16.71 191.46 16.89L191.46 16.89Q192.42 17.10 193.05 17.33Q193.68 17.56 194.14 18.07Q194.60 18.58 194.60 19.46L194.60 19.46Q194.60 20.21 194.19 20.83Q193.77 21.44 192.93 21.80Q192.09 22.17 190.88 22.17L190.88 22.17Q189.86 22.17 188.90 21.92Q187.94 21.67 187.34 21.24Z" fill="#FFFFFF" x="103.37"/></svg>